<mxfile host="Electron" modified="2023-10-17T12:20:08.986Z" agent="Mozilla/5.0 (Windows NT 10.0; Win64; x64) AppleWebKit/537.36 (KHTML, like Gecko) draw.io/22.0.2 Chrome/114.0.5735.289 Electron/25.8.4 Safari/537.36" etag="eKrVsDMkd8V-X1EoTRNt" version="22.0.2" type="device">
  <diagram name="Page-1" id="15UynA5gMZ3lsAEHXErT">
    <mxGraphModel dx="1418" dy="828" grid="1" gridSize="10" guides="1" tooltips="1" connect="1" arrows="1" fold="1" page="1" pageScale="1" pageWidth="1654" pageHeight="1169" math="0" shadow="0">
      <root>
        <mxCell id="0" />
        <mxCell id="1" parent="0" />
        <mxCell id="T1NDPyqaz0XW925HI01K-1" value="" style="rounded=1;whiteSpace=wrap;html=1;" vertex="1" parent="1">
          <mxGeometry x="320" y="410" width="600" height="20" as="geometry" />
        </mxCell>
        <mxCell id="T1NDPyqaz0XW925HI01K-2" value="Perceptron&lt;br&gt;1958" style="rounded=1;whiteSpace=wrap;html=1;" vertex="1" parent="1">
          <mxGeometry x="250" y="480" width="120" height="60" as="geometry" />
        </mxCell>
        <mxCell id="T1NDPyqaz0XW925HI01K-3" value="The XOR test&lt;br&gt;1969" style="rounded=1;whiteSpace=wrap;html=1;" vertex="1" parent="1">
          <mxGeometry x="370" y="330" width="120" height="60" as="geometry" />
        </mxCell>
        <mxCell id="T1NDPyqaz0XW925HI01K-4" value="Backprop&lt;br&gt;1986" style="rounded=1;whiteSpace=wrap;html=1;" vertex="1" parent="1">
          <mxGeometry x="590" y="330" width="120" height="60" as="geometry" />
        </mxCell>
        <mxCell id="T1NDPyqaz0XW925HI01K-5" value="NeoCognitron&lt;br&gt;1980" style="rounded=1;whiteSpace=wrap;html=1;" vertex="1" parent="1">
          <mxGeometry x="490" y="480" width="120" height="60" as="geometry" />
        </mxCell>
        <mxCell id="T1NDPyqaz0XW925HI01K-6" value="ImageNet Challenge&lt;br&gt;2009, 2015" style="rounded=1;whiteSpace=wrap;html=1;" vertex="1" parent="1">
          <mxGeometry x="890" y="555" width="120" height="60" as="geometry" />
        </mxCell>
        <mxCell id="T1NDPyqaz0XW925HI01K-7" value="AlexNet&lt;br&gt;2012&lt;br&gt;(15.3%)" style="rounded=1;whiteSpace=wrap;html=1;" vertex="1" parent="1">
          <mxGeometry x="40" y="700" width="120" height="60" as="geometry" />
        </mxCell>
        <mxCell id="T1NDPyqaz0XW925HI01K-8" value="GoogleNet&lt;br&gt;2014&lt;br&gt;(6.67%)" style="rounded=1;whiteSpace=wrap;html=1;" vertex="1" parent="1">
          <mxGeometry x="490" y="700" width="120" height="60" as="geometry" />
        </mxCell>
        <mxCell id="T1NDPyqaz0XW925HI01K-9" value="ResNet&lt;br&gt;2015&lt;br&gt;(3.57%)" style="rounded=1;whiteSpace=wrap;html=1;" vertex="1" parent="1">
          <mxGeometry x="630" y="700" width="120" height="60" as="geometry" />
        </mxCell>
        <mxCell id="T1NDPyqaz0XW925HI01K-10" value="VGG&lt;br&gt;2014&lt;br&gt;(7.3%)" style="rounded=1;whiteSpace=wrap;html=1;" vertex="1" parent="1">
          <mxGeometry x="320" y="700" width="120" height="60" as="geometry" />
        </mxCell>
        <mxCell id="T1NDPyqaz0XW925HI01K-11" value="ZFNet&lt;br&gt;2013&lt;br&gt;(11.2%)" style="rounded=1;whiteSpace=wrap;html=1;" vertex="1" parent="1">
          <mxGeometry x="180" y="700" width="120" height="60" as="geometry" />
        </mxCell>
        <mxCell id="T1NDPyqaz0XW925HI01K-12" value="ResNeXt&lt;br&gt;2016&lt;br&gt;(4.1%)" style="rounded=1;whiteSpace=wrap;html=1;" vertex="1" parent="1">
          <mxGeometry x="770" y="700" width="120" height="60" as="geometry" />
        </mxCell>
        <mxCell id="T1NDPyqaz0XW925HI01K-13" value="PNASNet&lt;br&gt;2018&lt;br&gt;(3.8%)" style="rounded=1;whiteSpace=wrap;html=1;" vertex="1" parent="1">
          <mxGeometry x="1030" y="700" width="120" height="60" as="geometry" />
        </mxCell>
        <mxCell id="T1NDPyqaz0XW925HI01K-14" value="SENet&lt;br&gt;2017&lt;br&gt;(2.251%)" style="rounded=1;whiteSpace=wrap;html=1;" vertex="1" parent="1">
          <mxGeometry x="900" y="700" width="120" height="60" as="geometry" />
        </mxCell>
      </root>
    </mxGraphModel>
  </diagram>
</mxfile>
